<svg xmlns="http://www.w3.org/2000/svg" width="28" height="28" viewBox="0 0 28 28">
  <g id="customersupport_ic" transform="translate(-135.922 -439.922)">
    <rect id="Rectangle_130" data-name="Rectangle 130" width="28" height="28" rx="5" transform="translate(135.922 439.922)" fill="#f90"/>
    <path id="Icon_awesome-headphones-alt" data-name="Icon awesome-headphones-alt" d="M5.324,10.768H4.791A2.131,2.131,0,0,0,2.662,12.9v2.121a2.131,2.131,0,0,0,2.129,2.133h.532A1.066,1.066,0,0,0,6.388,16.09V11.835A1.066,1.066,0,0,0,5.324,10.768Zm6.921,0h-.532a1.066,1.066,0,0,0-1.065,1.067V16.09a1.066,1.066,0,0,0,1.065,1.067h.532a2.131,2.131,0,0,0,2.129-2.133V12.9a2.131,2.131,0,0,0-2.129-2.133ZM8.518,2.25A8.68,8.68,0,0,0,0,10.768v3.727a.532.532,0,0,0,.532.532h.532a.532.532,0,0,0,.532-.532V10.768a6.921,6.921,0,0,1,13.842,0v3.727a.532.532,0,0,0,.532.532H16.5a.532.532,0,0,0,.532-.532V10.768A8.68,8.68,0,0,0,8.518,2.25Z" transform="translate(141.404 444.219)" fill="#fff"/>
  </g>
</svg>
