<svg xmlns="http://www.w3.org/2000/svg" width="28" height="28" viewBox="0 0 28 28">
  <g id="email_ic" transform="translate(-135.922 -439.922)">
    <rect id="Rectangle_130" data-name="Rectangle 130" width="28" height="28" rx="5" transform="translate(135.922 439.922)" fill="#f90"/>
    <g id="Iconly_Bold_Message" data-name="Iconly/Bold/Message" transform="translate(141.922 445.826)">
      <g id="Message" transform="translate(1.334 2)">
        <path id="Message-2" data-name="Message" d="M9.959,12H3.373A3.374,3.374,0,0,1,0,8.633V3.367A3.374,3.374,0,0,1,3.373,0H9.959a3.394,3.394,0,0,1,2.387.988,3.341,3.341,0,0,1,.987,2.379V8.633A3.374,3.374,0,0,1,9.959,12ZM2.69,3.5a.489.489,0,0,0-.356.15.509.509,0,0,0-.047.667l.088.086L5.407,6.767a2.086,2.086,0,0,0,1.3.453,2.12,2.12,0,0,0,1.306-.453L11.02,4.36l.053-.053a.516.516,0,0,0-.008-.667.554.554,0,0,0-.352-.173h-.028a.506.506,0,0,0-.346.134L7.333,6a1.043,1.043,0,0,1-.664.24A1.061,1.061,0,0,1,6,6L3,3.6A.519.519,0,0,0,2.69,3.5Z" fill="#fff"/>
      </g>
    </g>
  </g>
</svg>
