<svg xmlns="http://www.w3.org/2000/svg" width="28" height="28" viewBox="0 0 28 28">
  <g id="faq_ic" transform="translate(-135.922 -439.922)">
    <rect id="Rectangle_130" data-name="Rectangle 130" width="28" height="28" rx="5" transform="translate(135.922 439.922)" fill="#f90"/>
    <path id="Icon_awesome-question-circle" data-name="Icon awesome-question-circle" d="M16.348,8.455A7.893,7.893,0,1,1,8.455.563,7.892,7.892,0,0,1,16.348,8.455ZM8.667,3.172A4.122,4.122,0,0,0,4.958,5.2a.382.382,0,0,0,.086.517l1.1.837a.382.382,0,0,0,.53-.068c.569-.721.958-1.139,1.824-1.139.65,0,1.454.418,1.454,1.049,0,.477-.393.721-1.035,1.081-.749.42-1.739.942-1.739,2.249v.127a.382.382,0,0,0,.382.382H9.346a.382.382,0,0,0,.382-.382V9.813c0-.906,2.647-.944,2.647-3.395C12.376,4.573,10.461,3.172,8.667,3.172Zm-.212,7.893a1.464,1.464,0,1,0,1.464,1.464A1.466,1.466,0,0,0,8.455,11.065Z" transform="translate(141.045 445.899)" fill="#fff"/>
  </g>
</svg>
