<svg xmlns="http://www.w3.org/2000/svg" width="36" height="36" viewBox="0 0 36 36">
  <g id="ic_filter" transform="translate(-19.957 -61.957)">
    <rect id="Rectangle_1" data-name="Rectangle 1" width="36" height="36" rx="10" transform="translate(19.957 61.957)" fill="#f90"/>
    <g id="filter" transform="translate(-36.068 -9.318)">
      <path id="Path_1529" data-name="Path 1529" d="M83.021,81.97H71.393a2.4,2.4,0,0,0-4.548,0H65.03a.763.763,0,0,0,0,1.527h1.815a2.4,2.4,0,0,0,4.548,0H83.022a.763.763,0,1,0,0-1.527Zm-13.9,1.636a.872.872,0,1,1,.872-.872A.873.873,0,0,1,69.119,83.605Z" transform="translate(0)" fill="#fff"/>
      <path id="Path_1530" data-name="Path 1530" d="M83.022,210.5H81.206a2.4,2.4,0,0,0-4.547,0H65.031a.763.763,0,0,0,0,1.527H76.659a2.4,2.4,0,0,0,4.548,0h1.815a.763.763,0,1,0,0-1.527Zm-4.089,1.636a.872.872,0,1,1,.872-.872A.873.873,0,0,1,78.933,212.138Z" transform="translate(0 -121.991)" fill="#fff"/>
      <path id="Path_1531" data-name="Path 1531" d="M83.021,339.036H74.664a2.4,2.4,0,0,0-4.548,0H65.03a.763.763,0,0,0,0,1.527h5.086a2.4,2.4,0,0,0,4.548,0h8.357a.763.763,0,1,0,0-1.527ZM72.39,340.671a.872.872,0,1,1,.872-.872A.873.873,0,0,1,72.39,340.671Z" transform="translate(0 -243.982)" fill="#fff"/>
    </g>
  </g>
</svg>
