<svg xmlns="http://www.w3.org/2000/svg" width="28" height="28" viewBox="0 0 28 28">
  <g id="ic_phone" transform="translate(-135.922 -439.922)">
    <rect id="Rectangle_130" data-name="Rectangle 130" width="28" height="28" rx="5" transform="translate(135.922 439.922)" fill="#f90"/>
    <path id="Subtraction_1" data-name="Subtraction 1" d="M-5052.948,13.668h-7.921A1.091,1.091,0,0,1-5062,12.626V1.042A1.091,1.091,0,0,1-5060.869,0h7.921a1.09,1.09,0,0,1,1.131,1.042V12.626A1.09,1.09,0,0,1-5052.948,13.668Zm-3.86-3.227a1,1,0,0,0-1,1,1,1,0,0,0,1,1,1,1,0,0,0,1-1A1,1,0,0,0-5056.808,10.441Z" transform="translate(5206.73 447.134)" fill="#fff"/>
  </g>
</svg>
