<svg xmlns="http://www.w3.org/2000/svg" width="15.827" height="18.086" viewBox="0 0 15.827 18.086">
  <g id="ic_username" fill="none">
    <path d="M7.913,9.043A4.522,4.522,0,1,0,3.391,4.522,4.522,4.522,0,0,0,7.913,9.043Zm3.165,1.13h-.59a6.149,6.149,0,0,1-5.151,0H4.748A4.749,4.749,0,0,0,0,14.921V16.39a1.7,1.7,0,0,0,1.7,1.7H14.131a1.7,1.7,0,0,0,1.7-1.695v-1.47A4.749,4.749,0,0,0,11.078,10.174Z" stroke="none"/>
    <path d="M 7.912821292877197 1.5 C 6.246701240539551 1.5 4.89121150970459 2.855488777160645 4.89121150970459 4.521618843078613 C 4.89121150970459 6.187739372253418 6.246701240539551 7.543229103088379 7.912821292877197 7.543229103088379 C 9.578950881958008 7.543229103088379 10.93444061279297 6.187739372253418 10.93444061279297 4.521609306335449 C 10.93444061279297 2.855488777160645 9.578950881958008 1.5 7.912821292877197 1.5 M 4.748101234436035 11.67362976074219 C 2.957581520080566 11.6741189956665 1.500481605529785 13.13121891021729 1.500000953674316 14.92132949829102 L 1.500000953674316 16.39020919799805 C 1.500000953674316 16.4984188079834 1.588041305541992 16.58646011352539 1.696250915527344 16.58646011352539 L 14.13067150115967 16.58646011352539 C 14.23881149291992 16.58646011352539 14.32686138153076 16.49848937988281 14.32694149017334 16.39149856567383 L 14.32694149017334 14.92173957824707 C 14.32646083831787 13.13071918487549 12.86896133422852 11.67362976074219 11.07795143127441 11.67362976074219 L 10.79853630065918 11.67362976074219 C 9.879867553710938 12.04890441894531 8.91057014465332 12.23889923095703 7.912181377410889 12.23889923095703 C 6.913784027099609 12.23889923095703 5.944484710693359 12.04890441894531 5.025815963745117 11.67362976074219 L 4.748101234436035 11.67362976074219 M 7.912821292877197 0 C 10.41004180908203 0 12.43444156646729 2.024398803710938 12.43444156646729 4.521609306335449 C 12.43444156646729 7.018829345703125 10.41004180908203 9.043229103088379 7.912821292877197 9.043229103088379 C 5.415611267089844 9.043229103088379 3.39121150970459 7.018829345703125 3.39121150970459 4.521618843078613 C 3.39121150970459 2.024398803710938 5.415611267089844 0 7.912821292877197 0 Z M 4.74769115447998 10.17362976074219 L 5.336801528930664 10.17362976074219 C 6.153901100158691 10.55047416687012 7.033039093017578 10.73889636993408 7.912177562713623 10.73889636993408 C 8.791316032409668 10.73889636993408 9.670455932617188 10.55047416687012 10.48756122589111 10.17362976074219 L 11.07795143127441 10.17362976074219 C 13.70024108886719 10.17362976074219 15.82623100280762 12.29903888702393 15.82694149017334 14.92132949829102 L 15.82694149017334 16.39149856567383 C 15.82623100280762 17.32780838012695 15.06700134277344 18.08644866943359 14.13069152832031 18.08645820617676 L 1.696250915527344 18.08645820617676 C 0.7594413757324219 18.08645820617676 9.5367431640625e-07 17.32701873779297 9.5367431640625e-07 16.39020919799805 L 9.5367431640625e-07 14.92132949829102 C 0.0007114410400390625 12.2995491027832 2.125910758972168 10.17434883117676 4.74769115447998 10.17362976074219 Z" stroke="none" fill="#343d40"/>
  </g>
</svg>
