<svg xmlns="http://www.w3.org/2000/svg" width="14.184" height="20.668" viewBox="0 0 14.184 20.668">
  <g id="phone_ic" transform="translate(-4.5 1.908)">
    <g id="Path_7" data-name="Path 7" transform="translate(0 -6.408)" fill="none">
      <path d="M6.076,4.5H17.108a1.576,1.576,0,0,1,1.576,1.576V23.592a1.576,1.576,0,0,1-1.576,1.576H6.076A1.576,1.576,0,0,1,4.5,23.592V6.076A1.576,1.576,0,0,1,6.076,4.5Z" stroke="none"/>
      <path d="M 6.075973510742188 5.999996185302734 C 6.034084320068359 5.999996185302734 6.000003814697266 6.034076690673828 6.000003814697266 6.07597541809082 L 6.000003814697266 23.59189605712891 C 6.000003814697266 23.63379669189453 6.034084320068359 23.66787528991699 6.075973510742188 23.66787528991699 L 17.10781478881836 23.66787528991699 C 17.14970397949219 23.66787528991699 17.18378448486328 23.63379669189453 17.18378448486328 23.59189605712891 L 17.18378448486328 6.07597541809082 C 17.18378448486328 6.034076690673828 17.14970397949219 5.999996185302734 17.10781478881836 5.999996185302734 L 6.075973510742188 5.999996185302734 M 6.075973510742188 4.499996185302734 L 17.10781478881836 4.499996185302734 C 17.97819519042969 4.499996185302734 18.68378448486328 5.205585479736328 18.68378448486328 6.07597541809082 L 18.68378448486328 23.59189605712891 C 18.68378448486328 24.4622859954834 17.97819519042969 25.16787528991699 17.10781478881836 25.16787528991699 L 6.075973510742188 25.16787528991699 C 5.205583572387695 25.16787528991699 4.500003814697266 24.4622859954834 4.500003814697266 23.59189605712891 L 4.500003814697266 6.07597541809082 C 4.500003814697266 5.205585479736328 5.205583572387695 4.499996185302734 6.075973510742188 4.499996185302734 Z" stroke="none" fill="#343d40"/>
    </g>
    <g id="Ellipse_1" data-name="Ellipse 1" transform="translate(10.692 14.88)" fill="none" stroke="#343d40" stroke-width="1.5">
      <circle cx="0.5" cy="0.5" r="0.5" stroke="none"/>
      <circle cx="0.5" cy="0.5" r="0.25" fill="none"/>
    </g>
  </g>
</svg>
